<svg width="25" height="26" viewBox="0 0 25 26" fill="none" xmlns="http://www.w3.org/2000/svg">
<path d="M12.3684 6.05263C18.647 6.05263 23.7368 4.92156 23.7368 3.52631C23.7368 2.13107 18.647 1 12.3684 1C6.08981 1 1 2.13107 1 3.52631C1 4.92156 6.08981 6.05263 12.3684 6.05263Z" fill="white" stroke="#F72D57" stroke-width="2" stroke-linecap="round" stroke-linejoin="round"/>
<path d="M1 3.52631C1 6.34315 5.88968 11.9566 8.39705 14.6484C9.31683 15.6234 9.83315 16.9106 9.8421 18.2509V25L14.8947 22.4737V18.2509C14.8947 16.9107 15.4265 15.6299 16.3398 14.6484C18.8484 11.9566 23.7368 6.34441 23.7368 3.52631" fill="white"/>
<path d="M1 3.52631C1 6.34315 5.88968 11.9566 8.39705 14.6484C9.31683 15.6234 9.83315 16.9106 9.8421 18.2509V25L14.8947 22.4737V18.2509C14.8947 16.9107 15.4265 15.6299 16.3398 14.6484C18.8484 11.9566 23.7368 6.34441 23.7368 3.52631" stroke="#F72D57" stroke-width="2" stroke-linecap="round" stroke-linejoin="round"/>
</svg>
