<svg width="23" height="21" viewBox="0 0 23 21" fill="none" xmlns="http://www.w3.org/2000/svg">
<path d="M11.5002 3.84726L10.4695 2.81546C8.05009 0.393467 3.61383 1.22926 2.01241 4.27425C1.26057 5.70645 1.09094 7.77424 2.4638 10.4132C3.78634 12.9542 6.5378 15.9978 11.5002 19.313C16.4626 15.9978 19.2126 12.9542 20.5366 10.4132C21.9095 7.77284 21.7413 5.70645 20.988 4.27425C19.3866 1.22926 14.9503 0.392067 12.5309 2.81406L11.5002 3.84726ZM11.5002 21C-10.5417 6.81525 4.71355 -4.25592 11.2472 1.60026C11.3334 1.67726 11.4183 1.75706 11.5002 1.83966C11.5813 1.75714 11.6657 1.67774 11.7532 1.60166C18.2854 -4.25872 33.5421 6.81385 11.5002 21Z" fill="black"/>
</svg>
