<svg width="23" height="25" viewBox="0 0 23 25" fill="none" xmlns="http://www.w3.org/2000/svg">
<path d="M0.421188 9.80963L10.4837 0.393831C10.7533 0.141661 11.1188 0 11.5 0C11.8812 0 12.2467 0.141661 12.5163 0.393831L22.5788 9.80963C22.8484 10.0618 22.9999 10.4039 23 10.7606V23.6549C23 24.0116 22.8486 24.3538 22.579 24.606C22.3094 24.8583 21.9437 25 21.5625 25H14.375V15.5842H8.625V25H1.4375C1.05625 25 0.690618 24.8583 0.421034 24.606C0.151451 24.3538 0 24.0116 0 23.6549V10.7606C8.14163e-05 10.4039 0.151586 10.0618 0.421188 9.80963V9.80963Z" fill="black"/>
</svg>
