<svg width="23" height="26" viewBox="0 0 23 26" fill="none" xmlns="http://www.w3.org/2000/svg">
<path d="M5.10004 5.7501C5.10004 5.57771 5.16852 5.41238 5.29042 5.29048C5.41232 5.16858 5.57765 5.1001 5.75004 5.1001H17.25C17.4224 5.1001 17.5878 5.16858 17.7097 5.29048C17.8316 5.41238 17.9 5.57771 17.9 5.7501C17.9 5.92249 17.8316 6.08782 17.7097 6.20972C17.5878 6.33162 17.4224 6.4001 17.25 6.4001H5.75004C5.57765 6.4001 5.41232 6.33162 5.29042 6.20972C5.16852 6.08782 5.10004 5.92249 5.10004 5.7501ZM5.10004 10.3501C5.10004 10.1777 5.16852 10.0124 5.29042 9.89048C5.41232 9.76858 5.57765 9.7001 5.75004 9.7001H17.25C17.4224 9.7001 17.5878 9.76858 17.7097 9.89048C17.8316 10.0124 17.9 10.1777 17.9 10.3501C17.9 10.5225 17.8316 10.6878 17.7097 10.8097C17.5878 10.9316 17.4224 11.0001 17.25 11.0001H5.75004C5.57765 11.0001 5.41232 10.9316 5.29042 10.8097C5.16852 10.6878 5.10004 10.5225 5.10004 10.3501ZM5.29042 14.4905C5.41232 14.3686 5.57765 14.3001 5.75004 14.3001H17.25C17.4224 14.3001 17.5878 14.3686 17.7097 14.4905C17.8316 14.6124 17.9 14.7777 17.9 14.9501C17.9 15.1225 17.8316 15.2878 17.7097 15.4097C17.5878 15.5316 17.4224 15.6001 17.25 15.6001H5.75004C5.57765 15.6001 5.41232 15.5316 5.29042 15.4097C5.16852 15.2878 5.10004 15.1225 5.10004 14.9501C5.10004 14.7777 5.16852 14.6124 5.29042 14.4905ZM5.10004 19.5501C5.10004 19.3777 5.16852 19.2124 5.29042 19.0905C5.41232 18.9686 5.57765 18.9001 5.75004 18.9001H10.35C10.5224 18.9001 10.6878 18.9686 10.8097 19.0905C10.9316 19.2124 11 19.3777 11 19.5501C11 19.7225 10.9316 19.8878 10.8097 20.0097C10.6878 20.1316 10.5224 20.2001 10.35 20.2001H5.75004C5.57765 20.2001 5.41232 20.1316 5.29042 20.0097C5.16852 19.8878 5.10004 19.7225 5.10004 19.5501Z" fill="black" stroke="black"/>
<path d="M0.5 3.45C0.5 2.66761 0.810803 1.91727 1.36404 1.36404C1.91727 0.810803 2.66761 0.5 3.45 0.5H19.55C20.3324 0.5 21.0827 0.810803 21.636 1.36404C22.1892 1.91727 22.5 2.66761 22.5 3.45V21.85C22.5 22.6324 22.1892 23.3827 21.636 23.936C21.0827 24.4892 20.3324 24.8 19.55 24.8H3.45C2.66761 24.8 1.91727 24.4892 1.36404 23.936C0.810803 23.3827 0.5 22.6324 0.5 21.85V3.45ZM19.55 1.8H3.45C3.01239 1.8 2.59271 1.97384 2.28327 2.28327C1.97384 2.59271 1.8 3.01239 1.8 3.45V21.85C1.8 22.2876 1.97384 22.7073 2.28327 23.0167C2.59271 23.3262 3.01239 23.5 3.45 23.5H19.55C19.9876 23.5 20.4073 23.3262 20.7167 23.0167C21.0262 22.7073 21.2 22.2876 21.2 21.85V3.45C21.2 3.01239 21.0262 2.59271 20.7167 2.28328C20.4073 1.97384 19.9876 1.8 19.55 1.8Z" fill="black" stroke="black"/>
</svg>
