<svg width="21" height="22" viewBox="0 0 21 22" fill="none" xmlns="http://www.w3.org/2000/svg">
<path d="M14.0009 15.2086L15.8092 13.3652C16.0528 13.12 16.3609 12.9521 16.6962 12.882C17.0316 12.8118 17.3796 12.8425 17.6982 12.9701L19.9021 13.8672C20.224 14.0004 20.5001 14.2278 20.6955 14.5207C20.8909 14.8136 20.9968 15.1589 21 15.5131V19.628C20.9981 19.869 20.9484 20.107 20.8539 20.3279C20.7594 20.5487 20.6221 20.7478 20.4501 20.9131C20.2781 21.0784 20.0751 21.2066 19.8533 21.2898C19.6315 21.373 19.3955 21.4096 19.1594 21.3974C3.71616 20.4181 0.600064 7.08586 0.0107509 1.98341C-0.0166054 1.73284 0.00838933 1.47921 0.0840907 1.2392C0.159792 0.999185 0.284485 0.778233 0.449965 0.590878C0.615445 0.403522 0.817963 0.254008 1.04419 0.152172C1.27043 0.0503362 1.51525 -0.00151358 1.76255 3.36342e-05H5.6617C6.00965 0.00108358 6.34933 0.108228 6.63705 0.307686C6.92478 0.507144 7.14739 0.789794 7.27626 1.11928L8.15619 3.36601C8.28556 3.68949 8.31857 4.04467 8.25109 4.38716C8.18361 4.72966 8.01863 5.0443 7.77677 5.29177L5.96847 7.13523C5.96847 7.13523 7.00986 14.3198 14.0009 15.2086Z" fill="white"/>
</svg>
