<svg width="21" height="23" viewBox="0 0 21 23" fill="none" xmlns="http://www.w3.org/2000/svg">
<mask id="path-1-inside-1_176_701" fill="white">
<path d="M13.2973 9.87556e-07C11.8141 -0.000762136 10.3622 0.440762 9.11625 1.27147C7.87032 2.10219 6.88343 3.28671 6.27426 4.6826C5.66509 6.07848 5.45957 7.62628 5.68243 9.13986C5.9053 10.6534 6.54704 12.0683 7.53049 13.2144L0 22.0369L1.04512 23L8.55695 14.2161C9.5232 14.9962 10.656 15.5267 11.8611 15.7634C13.0662 16.0001 14.3087 15.9362 15.485 15.577C16.6613 15.2178 17.7374 14.5736 18.6238 13.6982C19.5101 12.8228 20.1809 11.7415 20.5803 10.5444C20.9798 9.34722 21.0964 8.06888 20.9203 6.81583C20.7442 5.56278 20.2805 4.37129 19.568 3.34062C18.8555 2.30994 17.9146 1.46992 16.8239 0.890513C15.7332 0.311107 14.5241 0.00909511 13.2973 0.00963248V9.87556e-07ZM13.2973 14.4472C11.6268 14.4472 10.0247 13.7623 8.84346 12.5431C7.66221 11.3238 6.9986 9.67022 6.9986 7.94598C6.9986 6.22174 7.66221 4.56812 8.84346 3.3489C10.0247 2.12968 11.6268 1.44472 13.2973 1.44472C14.9679 1.44472 16.57 2.12968 17.7512 3.3489C18.9325 4.56812 19.5961 6.22174 19.5961 7.94598C19.5961 9.67022 18.9325 11.3238 17.7512 12.5431C16.57 13.7623 14.9679 14.4472 13.2973 14.4472Z"/>
</mask>
<path d="M13.2973 9.87556e-07C11.8141 -0.000762136 10.3622 0.440762 9.11625 1.27147C7.87032 2.10219 6.88343 3.28671 6.27426 4.6826C5.66509 6.07848 5.45957 7.62628 5.68243 9.13986C5.9053 10.6534 6.54704 12.0683 7.53049 13.2144L0 22.0369L1.04512 23L8.55695 14.2161C9.5232 14.9962 10.656 15.5267 11.8611 15.7634C13.0662 16.0001 14.3087 15.9362 15.485 15.577C16.6613 15.2178 17.7374 14.5736 18.6238 13.6982C19.5101 12.8228 20.1809 11.7415 20.5803 10.5444C20.9798 9.34722 21.0964 8.06888 20.9203 6.81583C20.7442 5.56278 20.2805 4.37129 19.568 3.34062C18.8555 2.30994 17.9146 1.46992 16.8239 0.890513C15.7332 0.311107 14.5241 0.00909511 13.2973 0.00963248V9.87556e-07ZM13.2973 14.4472C11.6268 14.4472 10.0247 13.7623 8.84346 12.5431C7.66221 11.3238 6.9986 9.67022 6.9986 7.94598C6.9986 6.22174 7.66221 4.56812 8.84346 3.3489C10.0247 2.12968 11.6268 1.44472 13.2973 1.44472C14.9679 1.44472 16.57 2.12968 17.7512 3.3489C18.9325 4.56812 19.5961 6.22174 19.5961 7.94598C19.5961 9.67022 18.9325 11.3238 17.7512 12.5431C16.57 13.7623 14.9679 14.4472 13.2973 14.4472Z" fill="white"/>
<path d="M13.2973 9.87556e-07H339.297V-325.832L13.4651 -326L13.2973 9.87556e-07ZM7.53049 13.2144L255.486 224.86L436.62 12.6507L254.93 -199.082L7.53049 13.2144ZM0 22.0369L-247.956 -189.609L-451.699 49.089L-220.923 261.763L0 22.0369ZM1.04512 23L-219.878 262.727L28.9134 492.004L248.803 234.877L1.04512 23ZM8.55695 14.2161L213.342 -239.436L-33.234 -438.508L-239.201 -197.661L8.55695 14.2161ZM11.8611 15.7634L-50.9752 335.65L11.8611 15.7634ZM13.2973 0.00963248H-312.703V326.152L13.4401 326.01L13.2973 0.00963248ZM13.2973 14.4472V340.447V14.4472ZM13.2973 1.44472V-324.555V1.44472ZM13.4651 -326C-53.096 -326.034 -117.43 -306.172 -171.731 -269.967L189.963 272.51C138.154 307.053 76.7242 326.033 13.1296 326L13.4651 -326ZM-171.731 -269.967C-225.911 -233.843 -267.357 -183.354 -292.513 -125.71L305.061 135.075C281.124 189.927 241.652 238.047 189.963 272.51L-171.731 -269.967ZM-292.513 -125.71C-317.636 -68.1415 -325.906 -4.94278 -316.84 56.6284L328.205 -38.3487C336.825 20.1954 328.966 80.2984 305.061 135.075L-292.513 -125.71ZM-316.84 56.6284C-307.77 118.229 -281.509 176.985 -239.869 225.511L254.93 -199.082C294.603 -152.849 319.581 -96.9217 328.205 -38.3487L-316.84 56.6284ZM-240.426 -198.431L-247.956 -189.609L247.956 233.682L255.486 224.86L-240.426 -198.431ZM-220.923 261.763L-219.878 262.727L221.969 -216.727L220.923 -217.69L-220.923 261.763ZM248.803 234.877L256.315 226.094L-239.201 -197.661L-246.713 -188.877L248.803 234.877ZM-196.228 267.868C-154.512 301.547 -104.779 325.081 -50.9752 335.65L74.6975 -304.123C126.091 -294.028 173.559 -271.555 213.342 -239.436L-196.228 267.868ZM-50.9752 335.65C2.86034 346.225 58.3834 343.339 110.698 327.363L-79.7282 -296.209C-29.766 -311.466 23.2721 -314.225 74.6975 -304.123L-50.9752 335.65ZM110.698 327.363C162.968 311.401 209.813 283.067 247.708 245.639L-210.461 -218.242C-174.338 -253.92 -129.646 -280.965 -79.7282 -296.209L110.698 327.363ZM247.708 245.639C285.556 208.257 313.416 162.889 329.819 113.731L-288.658 -92.6419C-273.054 -139.406 -246.536 -182.611 -210.461 -218.242L247.708 245.639ZM329.819 113.731C346.213 64.601 350.918 12.4679 343.748 -38.5508L-301.908 52.1825C-308.725 3.66982 -304.253 -45.9065 -288.658 -92.6419L329.819 113.731ZM343.748 -38.5508C336.577 -89.5824 317.614 -138.811 287.725 -182.045L-248.589 188.726C-277.053 147.553 -295.088 100.708 -301.908 52.1825L343.748 -38.5508ZM287.725 -182.045C257.805 -225.324 217.593 -261.601 169.757 -287.011L-136.11 288.792C-181.763 264.541 -220.094 229.944 -248.589 188.726L287.725 -182.045ZM169.757 -287.011C121.865 -312.452 68.135 -326.014 13.1545 -325.99L13.4401 326.01C-39.0869 326.033 -90.3989 313.074 -136.11 288.792L169.757 -287.011ZM339.297 0.00963248V9.87556e-07H-312.703V0.00963248H339.297ZM13.2973 -311.553C101.476 -311.553 183.875 -275.301 242.978 -214.298L-225.291 239.384C-163.826 302.826 -78.2225 340.447 13.2973 340.447V-311.553ZM242.978 -214.298C301.741 -153.646 332.999 -73.5201 332.999 7.94598H-319.001C-319.001 92.8605 -286.417 176.293 -225.291 239.384L242.978 -214.298ZM332.999 7.94598C332.999 89.4121 301.741 169.538 242.978 230.19L-225.291 -223.492C-286.417 -160.401 -319.001 -76.9686 -319.001 7.94598H332.999ZM242.978 230.19C183.875 291.193 101.476 327.445 13.2973 327.445V-324.555C-78.2225 -324.555 -163.826 -286.934 -225.291 -223.492L242.978 230.19ZM13.2973 327.445C-74.8815 327.445 -157.281 291.193 -216.383 230.19L251.886 -223.492C190.421 -286.934 104.817 -324.555 13.2973 -324.555V327.445ZM-216.383 230.19C-275.147 169.538 -306.404 89.4122 -306.404 7.94598H345.596C345.596 -76.9687 313.011 -160.401 251.886 -223.492L-216.383 230.19ZM-306.404 7.94598C-306.404 -73.5202 -275.147 -153.646 -216.383 -214.298L251.886 239.384C313.011 176.293 345.596 92.8606 345.596 7.94598H-306.404ZM-216.383 -214.298C-157.281 -275.301 -74.8815 -311.553 13.2973 -311.553V340.447C104.817 340.447 190.42 302.826 251.886 239.384L-216.383 -214.298Z" fill="white" mask="url(#path-1-inside-1_176_701)"/>
</svg>
