<svg width="70" height="65" viewBox="0 0 70 65" fill="none" xmlns="http://www.w3.org/2000/svg">
<path d="M50.8267 39.3848C50.6952 39.8855 51.1996 40.4394 51.944 40.6276C52.6897 40.8134 53.392 40.5564 53.5199 40.0569L57.8914 22.5598C58.0181 22.0603 57.515 21.4992 56.7741 21.3194C56.0284 21.1264 55.3213 21.3834 55.1983 21.8853L50.8267 39.3848Z" fill="#808285"/>
<path d="M51.9688 39.5083C51.9386 39.6276 51.9322 39.7517 51.95 39.8735C51.9678 39.9953 52.0095 40.1124 52.0726 40.218C52.1357 40.3237 52.219 40.4159 52.3177 40.4894C52.4165 40.5628 52.5288 40.6161 52.6481 40.6461C52.8887 40.7045 53.1427 40.6655 53.3546 40.5376C53.5666 40.4097 53.7195 40.2032 53.7799 39.9632L58.1563 22.4685C58.2052 22.2326 58.1611 21.9869 58.0331 21.7828C57.9051 21.5786 57.7032 21.4319 57.4695 21.3731C57.2358 21.3144 56.9885 21.3483 56.7792 21.4676C56.5699 21.587 56.4148 21.7826 56.3464 22.0136L51.9688 39.5083Z" fill="#9D9EA4"/>
<path d="M48.558 16.2053C48.8126 12.1873 51.1945 9.40486 53.8249 8.06794C55.1835 7.37172 56.7871 6.89149 58.6513 6.97354C62.93 7.15936 65.6038 9.91646 66.6258 12.8497C67.1592 14.3701 67.3293 16.3272 66.6114 18.2662C65.3722 21.6532 62.0986 23.6537 58.5802 23.1638C56.5096 22.8718 55.1099 21.8342 54.1374 20.4188C53.0442 18.8321 52.4156 15.847 54.071 13.5978C55.449 11.7155 58.9578 10.4208 61.3107 12.6277C62.1686 13.4253 62.9662 15.0144 62.4039 16.6831C61.9321 18.119 60.4094 19.0915 58.9759 18.7018C57.9238 18.4194 57.3675 17.6436 57.575 16.4382C57.7017 16.408 57.7355 16.8014 57.8719 16.992C58.0082 17.1827 58.2483 17.3878 58.5126 17.4843C60.0414 18.0647 61.032 16.7326 60.8667 15.3414C60.7436 14.2192 59.7107 13.2877 58.3244 13.2684C56.8957 13.2407 55.6131 14.1903 55.128 15.4874C54.217 17.9284 55.8062 20.5853 58.3437 21.2321C61.108 21.9367 63.5972 20.3307 64.6313 18.148C65.5978 16.1112 65.2105 14.1601 64.4696 12.6458C63.4331 10.5234 61.0091 8.64952 57.6933 8.88964C54.5235 9.11769 51.2235 11.3029 50.5574 15.5465C50.3354 16.9788 50.4536 18.002 50.7661 19.1446C51.3127 21.1814 52.4301 22.9841 54.5006 24.3463C56.5434 25.6881 59.566 26.1671 61.8537 25.6096C63.9942 25.0884 65.9091 23.9506 67.2871 22.2661C68.9357 20.2484 69.7821 17.6934 69.6641 15.0904C69.5444 12.8788 68.795 10.7474 67.5042 8.94756C66.3206 7.30415 64.1511 5.62938 61.8066 4.8849L60.4528 4.54222C57.7983 4.21885 55.4212 4.51688 53.3748 5.36513C54.6703 4.56423 56.1133 4.03142 57.6184 3.79826C59.1236 3.56509 60.6602 3.63631 62.1372 4.00769C68.2535 5.53647 71.9747 11.7445 70.4472 17.8632C68.9148 23.9843 62.7128 27.7055 56.5929 26.1779C54.4349 25.6393 52.4814 24.4819 50.9722 22.848C49.4631 21.2142 48.4642 19.175 48.0983 16.9812C48.2805 16.7857 48.4422 16.5335 48.5605 16.2053" fill="#DEB5E5"/>
<path d="M64.6517 18.1455C64.1413 19.219 63.3148 20.1107 62.2832 20.7011L61.7124 17.8619C62.0286 17.5265 62.2832 17.1259 62.4292 16.6807C62.6516 16.0061 62.6747 15.2817 62.4955 14.5944L64.7929 13.3372C65.3154 14.7308 65.4759 16.4044 64.6517 18.1455Z" fill="#29ABE2"/>
<path d="M61.8746 25.5992C61.1433 25.767 60.3938 25.8424 59.6436 25.8237L59.4506 23.2174C60.814 23.2548 62.1051 22.9278 63.2381 22.2931L65.6755 23.8146C64.5428 24.6621 63.249 25.2694 61.8734 25.5992M67.524 8.93956C68.5063 10.3116 69.179 11.8805 69.4956 13.538L66.9062 13.7672C66.5294 12.1445 65.7114 10.6574 64.5425 9.47047L66.2221 7.4856C66.7264 7.95617 67.1705 8.45088 67.524 8.93956Z" fill="#93278F"/>
<path d="M58.3664 21.2273C55.8289 20.5781 54.2398 17.9236 55.1508 15.4802C55.6359 14.1831 56.9149 13.2359 58.3435 13.2612C59.7347 13.283 60.7688 14.2145 60.8906 15.3366C61.0511 16.7302 60.0605 18.0599 58.5365 17.4771C58.2807 17.3757 58.0575 17.2063 57.891 16.9873C57.7595 16.7966 57.7257 16.3972 57.599 16.4334C57.3866 17.64 57.9477 18.4147 58.9999 18.697C59.0795 18.7211 59.1604 18.738 59.24 18.7489L59.7637 21.3914C59.2927 21.3987 58.8229 21.3435 58.3664 21.2273ZM67.568 21.9331L65.3322 20.5371C65.8902 19.8532 66.3299 19.0808 66.6329 18.2518C66.8576 17.6426 67.0036 17.0072 67.0673 16.361L69.6796 16.1306C69.5624 18.2305 68.8278 20.249 67.568 21.9331ZM54.5173 24.3464C53.3349 23.5657 52.4564 22.6366 51.8254 21.6062L54.1602 20.4225C54.8214 21.3757 55.6793 22.1672 56.8111 22.6583L57.009 25.4456C56.1275 25.2077 55.2873 24.8371 54.5173 24.3464Z" fill="#29ABE2"/>
<path d="M50.7816 19.1387C50.4739 17.9972 50.352 16.974 50.5777 15.543C50.965 13.0839 52.238 11.3102 53.8609 10.2134L55.0071 12.6616C54.6602 12.9298 54.3506 13.2431 54.0865 13.5931C53.0874 14.9505 52.9221 16.5734 53.1864 17.9972L50.8045 19.2038C50.7961 19.1857 50.7912 19.1628 50.7816 19.1363" fill="#93278F"/>
<path d="M57.7153 8.88585C60.1961 8.70968 62.1713 9.71117 63.4503 11.112L61.083 12.4043C59.9596 11.4994 58.6154 11.3172 57.3714 11.573L56.23 9.13561C56.7247 9.00289 57.2194 8.92084 57.7153 8.88464M55.693 4.67236L55.9235 7.26175C55.1742 7.45963 54.4756 7.73595 53.8385 8.06656C52.9678 8.51112 52.1696 9.08516 51.4711 9.76908L49.514 8.02915C51.161 6.3037 53.24 5.15621 55.693 4.67236ZM48.5764 16.2027C47.8778 18.085 45.9436 17.5372 45.9303 17.2585C45.864 14.7898 46.6579 12.1582 47.9249 10.0949L49.8723 11.8264C49.106 13.1646 48.6623 14.663 48.5764 16.2027Z" fill="#29ABE2"/>
<path d="M60.4659 4.5476L61.8245 4.88787C62.6257 5.14246 63.4052 5.50806 64.1304 5.94003L62.4375 7.94421C61.2653 7.35076 59.9775 7.02089 58.6644 6.97772C58.6125 6.97289 58.5558 6.97289 58.5039 6.97289L58.2735 4.42091C59.0063 4.41392 59.7387 4.45625 60.4659 4.5476Z" fill="#93278F"/>
<path d="M47.9273 10.1009C48.0206 9.9425 48.1196 9.78755 48.2241 9.63634C48.6211 9.05596 49.0507 8.52264 49.5164 8.03276L51.4735 9.77269C50.8507 10.384 50.3129 11.0764 49.8748 11.8312L47.9273 10.1009ZM58.274 4.42017L58.5045 6.97215C57.6334 6.9485 56.7633 7.04761 55.9199 7.26656L55.6894 4.67717C56.5099 4.51669 57.3739 4.42741 58.274 4.42017ZM66.2195 7.49582L64.5411 9.48069C63.9235 8.86298 63.2141 8.34445 62.438 7.94347L64.1309 5.93929C64.9007 6.39901 65.6066 6.92871 66.2195 7.49582ZM69.6825 15.095C69.7018 15.4486 69.7018 15.7937 69.6825 16.1424L67.0702 16.3728C67.1544 15.5047 67.1003 14.6286 66.9097 13.7774L69.4991 13.5482C69.5932 14.0622 69.6547 14.5762 69.6825 15.095ZM67.3055 22.2708C66.8251 22.8534 66.2771 23.3767 65.6729 23.8297L63.2356 22.3082C64.0348 21.8542 64.7443 21.258 65.329 20.5489L67.5649 21.945C67.4804 22.056 67.396 22.167 67.3067 22.2708M57.0071 25.4526L56.8092 22.6653C57.3413 22.9018 57.9361 23.0756 58.5998 23.1661C58.8882 23.2083 59.1717 23.2324 59.4492 23.2373L59.6423 25.8435C58.7512 25.8211 57.8662 25.6898 57.0071 25.4526ZM50.8051 19.2144L53.1869 18.0078C53.3655 18.9441 53.719 19.7972 54.1582 20.4331L51.8235 21.6168C51.3714 20.8707 51.0285 20.0637 50.8051 19.2204M56.2167 9.14043L57.3582 11.5778C56.4999 11.7592 55.6939 12.1325 55.0005 12.6698L53.8542 10.2215C54.5776 9.73531 55.3756 9.37053 56.2167 9.14163M64.482 12.6492C64.5906 12.8689 64.6956 13.1017 64.7849 13.3431L62.4875 14.6003C62.2882 13.8489 61.8873 13.1663 61.3279 12.6263C61.2446 12.5522 61.1597 12.4798 61.0733 12.4091L63.4407 11.1169C63.869 11.5911 64.2226 12.1099 64.482 12.6492ZM59.7642 21.4008L59.2405 18.7583C60.1503 18.9091 61.0709 18.5339 61.7116 17.869L62.2823 20.7082C61.5133 21.1441 60.648 21.3821 59.7642 21.4008Z" fill="#FBB03B"/>
<path d="M38.4837 8.77759L61.8231 14.8299L55.7273 38.342L32.3867 32.2896L38.4837 8.77759Z" fill="#00A79D"/>
<path d="M48.2506 10.6333L52.3724 11.7024L45.9484 36.4861L41.8266 35.4183L48.2506 10.6333Z" fill="#EF4136"/>
<path d="M34.2555 22.084L35.3257 17.9658L60.1083 24.4019L59.038 28.5212L34.2555 22.084Z" fill="#EF4136"/>
<path d="M4.12766 8.81187L37.044 0L45.9198 33.1576L13.0035 41.9695L4.12766 8.81187Z" fill="#FFF200"/>
<path d="M32.6078 37.6786L26.8028 39.2363L17.4347 4.27598L23.247 2.71704L32.6078 37.6786Z" fill="#27AAE1"/>
<path d="M8.19721 28.1116L6.64069 22.2981L41.607 12.9348L43.1636 18.7471L8.19721 28.1116Z" fill="#27AAE1"/>
<path d="M9.58772 25.423L4.2159 24.8064L0 72.2262L7.05988 71.4009L17.4379 44.8916L9.58772 25.423Z" fill="#BE1E2D"/>
<path d="M9.58583 25.4207L7.05798 71.3925L10.2181 76.8705L19.7648 41.1307L11.59 23.9377L9.58583 25.4207Z" fill="#840C1A"/>
<path d="M70.4083 24.8041L11.592 23.9377L10.2201 76.8705L74.1367 73.0697L70.4083 24.8041Z" fill="#C92B3D"/>
<path d="M34.0714 29.8236C44.5364 32.1982 54.4487 37.1236 65.1598 32.7955C67.0795 32.0184 68.9606 31.1533 70.8284 30.264L70.4073 24.8029L11.5887 23.9377L11.2689 36.2331C18.0187 31.5008 25.0496 27.7748 34.0714 29.8236Z" fill="#BE1E2D"/>
<path d="M41.5445 41.4477C28.0473 37.4719 21.3217 40.3243 10.9895 47.1537L10.461 67.6215C14.158 64.7123 17.5631 61.2361 21.4592 58.1472C27.5997 53.2845 33.3673 54.7131 40.485 56.0621C50.6013 57.9818 61.0095 59.5082 70.9278 55.6664C71.5589 55.4202 72.1296 55.1463 72.7293 54.8833L71.5589 39.7451C62.3947 43.4941 52.9312 44.8008 41.5408 41.4477" fill="#DB425F"/>
<path d="M48.4575 67.1204C43.496 66.3168 37.5015 64.058 32.5122 64.204C25.0372 64.4164 21.491 69.0087 16.4064 73.4937C15.1303 74.6206 13.8139 75.7008 12.4595 76.7323L74.1294 73.0702L73.4694 64.4924C65.3609 67.3243 57.1222 68.5237 48.4551 67.1204" fill="#D1334A"/>
<path d="M27.5511 31.9337C27.5511 33.8365 25.7122 35.3858 23.4486 35.3858C21.1898 35.3858 19.351 33.8365 19.351 31.9337C19.351 30.0261 21.1898 28.484 23.4486 28.484C25.7122 28.4828 27.5511 30.0261 27.5511 31.9337ZM66.6103 31.1506C66.6103 33.051 64.7762 34.6003 62.5126 34.6003C60.249 34.6003 58.4101 33.051 58.4101 31.1506C58.4101 29.243 60.249 27.7009 62.5126 27.7009C64.7762 27.6997 66.6103 29.243 66.6103 31.1506Z" fill="#FFF200"/>
<path d="M25.3536 34.3323C26.4709 40.2 25.7349 47.5 37.9603 51.8209C40.0067 52.5425 42.6154 53.1687 45.2241 53.3195C48.0584 53.4897 50.4813 53.0324 52.378 52.2312C56.746 50.3585 58.3484 47.4047 59.3679 44.8262C60.8062 41.1822 61.5471 37.3657 61.2684 33.6192C61.1972 32.5296 65.15 32.5441 65.2297 33.6385C65.4698 36.8843 64.7917 40.1059 63.9181 43.2914C63.1591 46.075 61.8994 48.8804 58.8636 51.3178C57.3782 52.5111 55.4115 53.6248 52.705 54.3463C50.2375 55.0064 47.2765 55.1331 44.3191 54.9304C38.3862 54.5153 33.1471 52.4218 29.7191 50.3802C26.0172 48.1782 24.3147 45.4379 23.2396 42.8715C22.0511 40.0287 21.9473 37.1509 21.4092 34.3154C21.2017 33.2295 25.1581 33.2439 25.3608 34.3311" fill="#E6E7E8"/>
</svg>
