<svg width="26" height="37" viewBox="0 0 26 37" fill="none" xmlns="http://www.w3.org/2000/svg">
<path d="M0 37L4.5 0H22L26 37L13 32.5L0 37Z" fill="#F2BC57"/>
<path d="M12.8098 2.58541C12.8697 2.40115 13.1303 2.40115 13.1902 2.58541L14.3022 6.0077C14.329 6.09011 14.4057 6.1459 14.4924 6.1459H18.0908C18.2845 6.1459 18.3651 6.39382 18.2084 6.5077L15.2972 8.62279C15.2271 8.67372 15.1978 8.764 15.2245 8.8464L16.3365 12.2687C16.3964 12.453 16.1855 12.6062 16.0287 12.4923L13.1176 10.3772C13.0475 10.3263 12.9525 10.3263 12.8824 10.3772L9.97127 12.4923C9.81453 12.6062 9.60363 12.453 9.6635 12.2687L10.7755 8.8464C10.8022 8.764 10.7729 8.67372 10.7028 8.62279L7.79164 6.5077C7.6349 6.39382 7.71545 6.1459 7.9092 6.1459H11.5076C11.5943 6.1459 11.671 6.09011 11.6978 6.0077L12.8098 2.58541Z" fill="url(#paint0_linear_176_1024)"/>
<path d="M5.46 24.48V23.62L8.82 18.8H10.2V23.49H11.13V24.48H10.2V26H9.08V24.48H5.46ZM9.13 19.96L6.77 23.49H9.13V19.96ZM12.6846 26.07C12.4779 26.07 12.3046 26 12.1646 25.86C12.0246 25.72 11.9546 25.5467 11.9546 25.34C11.9546 25.1333 12.0246 24.96 12.1646 24.82C12.3046 24.68 12.4779 24.61 12.6846 24.61C12.8846 24.61 13.0546 24.68 13.1946 24.82C13.3346 24.96 13.4046 25.1333 13.4046 25.34C13.4046 25.5467 13.3346 25.72 13.1946 25.86C13.0546 26 12.8846 26.07 12.6846 26.07ZM19.1867 19.69H15.8367V21.68C15.9767 21.4933 16.1834 21.3367 16.4567 21.21C16.7367 21.0833 17.0334 21.02 17.3467 21.02C17.9067 21.02 18.3601 21.14 18.7067 21.38C19.0601 21.62 19.3101 21.9233 19.4567 22.29C19.6101 22.6567 19.6867 23.0433 19.6867 23.45C19.6867 23.9433 19.5901 24.3833 19.3967 24.77C19.2101 25.15 18.9267 25.45 18.5467 25.67C18.1734 25.89 17.7134 26 17.1667 26C16.4401 26 15.8567 25.82 15.4167 25.46C14.9767 25.1 14.7134 24.6233 14.6267 24.03H15.7367C15.8101 24.3433 15.9734 24.5933 16.2267 24.78C16.4801 24.96 16.7967 25.05 17.1767 25.05C17.6501 25.05 18.0034 24.9067 18.2367 24.62C18.4767 24.3333 18.5967 23.9533 18.5967 23.48C18.5967 23 18.4767 22.6333 18.2367 22.38C17.9967 22.12 17.6434 21.99 17.1767 21.99C16.8501 21.99 16.5734 22.0733 16.3467 22.24C16.1267 22.4 15.9667 22.62 15.8667 22.9H14.7867V18.69H19.1867V19.69Z" fill="black"/>
<defs>
<linearGradient id="paint0_linear_176_1024" x1="7" y1="8" x2="15.5" y2="8" gradientUnits="userSpaceOnUse">
<stop offset="0.9999"/>
<stop offset="1" stop-color="#D9D9D9" stop-opacity="0"/>
</linearGradient>
</defs>
</svg>
