<svg width="26" height="37" viewBox="0 0 26 37" fill="none" xmlns="http://www.w3.org/2000/svg">
<path d="M0 37L4.5 0H22L26 37L13 32.5L0 37Z" fill="#F2BC57"/>
<path d="M12.8098 2.58541C12.8697 2.40115 13.1303 2.40115 13.1902 2.58541L14.3022 6.0077C14.329 6.09011 14.4057 6.1459 14.4924 6.1459H18.0908C18.2845 6.1459 18.3651 6.39382 18.2084 6.5077L15.2972 8.62279C15.2271 8.67372 15.1978 8.764 15.2245 8.8464L16.3365 12.2687C16.3964 12.453 16.1855 12.6062 16.0287 12.4923L13.1176 10.3772C13.0475 10.3263 12.9525 10.3263 12.8824 10.3772L9.97127 12.4923C9.81453 12.6062 9.60363 12.453 9.6635 12.2687L10.7755 8.8464C10.8022 8.764 10.7729 8.67372 10.7028 8.62279L7.79164 6.5077C7.6349 6.39382 7.71545 6.1459 7.9092 6.1459H11.5076C11.5943 6.1459 11.671 6.09011 11.6978 6.0077L12.8098 2.58541Z" fill="url(#paint0_linear_176_1104)"/>
<path d="M5.58 20.51C5.62 19.89 5.85667 19.4067 6.29 19.06C6.73 18.7133 7.29 18.54 7.97 18.54C8.43667 18.54 8.84 18.6233 9.18 18.79C9.52 18.9567 9.77667 19.1833 9.95 19.47C10.1233 19.7567 10.21 20.08 10.21 20.44C10.21 20.8533 10.1 21.2067 9.88 21.5C9.66 21.7933 9.39667 21.99 9.09 22.09V22.13C9.48333 22.25 9.79 22.47 10.01 22.79C10.23 23.1033 10.34 23.5067 10.34 24C10.34 24.3933 10.25 24.7433 10.07 25.05C9.89 25.3567 9.62333 25.6 9.27 25.78C8.91667 25.9533 8.49333 26.04 8 26.04C7.28 26.04 6.68667 25.8567 6.22 25.49C5.76 25.1167 5.51333 24.5833 5.48 23.89H6.58C6.60667 24.2433 6.74333 24.5333 6.99 24.76C7.23667 24.98 7.57 25.09 7.99 25.09C8.39667 25.09 8.71 24.98 8.93 24.76C9.15 24.5333 9.26 24.2433 9.26 23.89C9.26 23.4233 9.11 23.0933 8.81 22.9C8.51667 22.7 8.06333 22.6 7.45 22.6H7.19V21.66H7.46C8 21.6533 8.41 21.5633 8.69 21.39C8.97667 21.2167 9.12 20.9433 9.12 20.57C9.12 20.25 9.01667 19.9967 8.81 19.81C8.60333 19.6167 8.31 19.52 7.93 19.52C7.55667 19.52 7.26667 19.6167 7.06 19.81C6.85333 19.9967 6.73 20.23 6.69 20.51H5.58ZM12.1475 26.07C11.9408 26.07 11.7675 26 11.6275 25.86C11.4875 25.72 11.4175 25.5467 11.4175 25.34C11.4175 25.1333 11.4875 24.96 11.6275 24.82C11.7675 24.68 11.9408 24.61 12.1475 24.61C12.3475 24.61 12.5175 24.68 12.6575 24.82C12.7975 24.96 12.8675 25.1333 12.8675 25.34C12.8675 25.5467 12.7975 25.72 12.6575 25.86C12.5175 26 12.3475 26.07 12.1475 26.07ZM13.9296 20.51C13.9696 19.89 14.2063 19.4067 14.6396 19.06C15.0796 18.7133 15.6396 18.54 16.3196 18.54C16.7863 18.54 17.1896 18.6233 17.5296 18.79C17.8696 18.9567 18.1263 19.1833 18.2996 19.47C18.4729 19.7567 18.5596 20.08 18.5596 20.44C18.5596 20.8533 18.4496 21.2067 18.2296 21.5C18.0096 21.7933 17.7463 21.99 17.4396 22.09V22.13C17.8329 22.25 18.1396 22.47 18.3596 22.79C18.5796 23.1033 18.6896 23.5067 18.6896 24C18.6896 24.3933 18.5996 24.7433 18.4196 25.05C18.2396 25.3567 17.9729 25.6 17.6196 25.78C17.2663 25.9533 16.8429 26.04 16.3496 26.04C15.6296 26.04 15.0363 25.8567 14.5696 25.49C14.1096 25.1167 13.8629 24.5833 13.8296 23.89H14.9296C14.9563 24.2433 15.0929 24.5333 15.3396 24.76C15.5863 24.98 15.9196 25.09 16.3396 25.09C16.7463 25.09 17.0596 24.98 17.2796 24.76C17.4996 24.5333 17.6096 24.2433 17.6096 23.89C17.6096 23.4233 17.4596 23.0933 17.1596 22.9C16.8663 22.7 16.4129 22.6 15.7996 22.6H15.5396V21.66H15.8096C16.3496 21.6533 16.7596 21.5633 17.0396 21.39C17.3263 21.2167 17.4696 20.9433 17.4696 20.57C17.4696 20.25 17.3663 19.9967 17.1596 19.81C16.9529 19.6167 16.6596 19.52 16.2796 19.52C15.9063 19.52 15.6163 19.6167 15.4096 19.81C15.2029 19.9967 15.0796 20.23 15.0396 20.51H13.9296Z" fill="black"/>
<defs>
<linearGradient id="paint0_linear_176_1104" x1="7" y1="8" x2="13.5" y2="8" gradientUnits="userSpaceOnUse">
<stop offset="0.9999"/>
<stop offset="1" stop-color="#D9D9D9" stop-opacity="0"/>
</linearGradient>
</defs>
</svg>
