<svg width="26" height="37" viewBox="0 0 26 37" fill="none" xmlns="http://www.w3.org/2000/svg">
<path d="M0 37L4.5 0H22L26 37L13 32.5L0 37Z" fill="#F2BC57"/>
<path d="M12.8098 2.58541C12.8697 2.40115 13.1303 2.40115 13.1902 2.58541L14.3022 6.0077C14.329 6.09011 14.4057 6.1459 14.4924 6.1459H18.0908C18.2845 6.1459 18.3651 6.39382 18.2084 6.5077L15.2972 8.62279C15.2271 8.67372 15.1978 8.764 15.2245 8.8464L16.3365 12.2687C16.3964 12.453 16.1855 12.6062 16.0287 12.4923L13.1176 10.3772C13.0475 10.3263 12.9525 10.3263 12.8824 10.3772L9.97127 12.4923C9.81453 12.6062 9.60363 12.453 9.6635 12.2687L10.7755 8.8464C10.8022 8.764 10.7729 8.67372 10.7028 8.62279L7.79164 6.5077C7.6349 6.39382 7.71545 6.1459 7.9092 6.1459H11.5076C11.5943 6.1459 11.671 6.09011 11.6978 6.0077L12.8098 2.58541Z" fill="url(#paint0_linear_176_685)"/>
<path d="M10.3 19.69H6.95V21.68C7.09 21.4933 7.29667 21.3367 7.57 21.21C7.85 21.0833 8.14667 21.02 8.46 21.02C9.02 21.02 9.47333 21.14 9.82 21.38C10.1733 21.62 10.4233 21.9233 10.57 22.29C10.7233 22.6567 10.8 23.0433 10.8 23.45C10.8 23.9433 10.7033 24.3833 10.51 24.77C10.3233 25.15 10.04 25.45 9.66 25.67C9.28667 25.89 8.82667 26 8.28 26C7.55333 26 6.97 25.82 6.53 25.46C6.09 25.1 5.82667 24.6233 5.74 24.03H6.85C6.92333 24.3433 7.08667 24.5933 7.34 24.78C7.59333 24.96 7.91 25.05 8.29 25.05C8.76333 25.05 9.11667 24.9067 9.35 24.62C9.59 24.3333 9.71 23.9533 9.71 23.48C9.71 23 9.59 22.6333 9.35 22.38C9.11 22.12 8.75667 21.99 8.29 21.99C7.96333 21.99 7.68667 22.0733 7.46 22.24C7.24 22.4 7.08 22.62 6.98 22.9H5.9V18.69H10.3V19.69ZM12.5967 26.07C12.3901 26.07 12.2167 26 12.0767 25.86C11.9367 25.72 11.8667 25.5467 11.8667 25.34C11.8667 25.1333 11.9367 24.96 12.0767 24.82C12.2167 24.68 12.3901 24.61 12.5967 24.61C12.7967 24.61 12.9667 24.68 13.1067 24.82C13.2467 24.96 13.3167 25.1333 13.3167 25.34C13.3167 25.5467 13.2467 25.72 13.1067 25.86C12.9667 26 12.7967 26.07 12.5967 26.07ZM14.3988 22.26C14.3988 21.1067 14.5922 20.2067 14.9788 19.56C15.3722 18.9067 16.0455 18.58 16.9988 18.58C17.9522 18.58 18.6222 18.9067 19.0088 19.56C19.4022 20.2067 19.5988 21.1067 19.5988 22.26C19.5988 23.4267 19.4022 24.34 19.0088 25C18.6222 25.6533 17.9522 25.98 16.9988 25.98C16.0455 25.98 15.3722 25.6533 14.9788 25C14.5922 24.34 14.3988 23.4267 14.3988 22.26ZM18.4788 22.26C18.4788 21.72 18.4422 21.2633 18.3688 20.89C18.3022 20.5167 18.1622 20.2133 17.9488 19.98C17.7355 19.74 17.4188 19.62 16.9988 19.62C16.5788 19.62 16.2622 19.74 16.0488 19.98C15.8355 20.2133 15.6922 20.5167 15.6188 20.89C15.5522 21.2633 15.5188 21.72 15.5188 22.26C15.5188 22.82 15.5522 23.29 15.6188 23.67C15.6855 24.05 15.8255 24.3567 16.0388 24.59C16.2588 24.8233 16.5788 24.94 16.9988 24.94C17.4188 24.94 17.7355 24.8233 17.9488 24.59C18.1688 24.3567 18.3122 24.05 18.3788 23.67C18.4455 23.29 18.4788 22.82 18.4788 22.26Z" fill="black"/>
<defs>
<linearGradient id="paint0_linear_176_685" x1="7" y1="8" x2="19" y2="8" gradientUnits="userSpaceOnUse">
<stop offset="0.9999"/>
<stop offset="1" stop-color="#D9D9D9" stop-opacity="0"/>
</linearGradient>
</defs>
</svg>
