<svg width="23" height="23" viewBox="0 0 23 23" fill="none" xmlns="http://www.w3.org/2000/svg">
<path d="M11.5153 6.808C11.2379 6.808 11.0033 6.712 10.8113 6.52C10.6193 6.328 10.5233 6.09333 10.5233 5.816C10.5233 5.53867 10.6193 5.304 10.8113 5.112C11.0033 4.92 11.2379 4.824 11.5153 4.824C11.7819 4.824 12.0059 4.92 12.1873 5.112C12.3793 5.304 12.4753 5.53867 12.4753 5.816C12.4753 6.09333 12.3793 6.328 12.1873 6.52C12.0059 6.712 11.7819 6.808 11.5153 6.808ZM12.2193 8.232V17H10.7633V8.232H12.2193Z" fill="black"/>
<circle cx="11.5" cy="11.5" r="11.1" stroke="black" stroke-width="0.8"/>
</svg>
