<svg width="20" height="22" viewBox="0 0 20 22" fill="none" xmlns="http://www.w3.org/2000/svg">
<path d="M1.66667 21.4187C1.66667 21.4187 0 21.4187 0 19.6354C0 17.8521 1.66667 12.5022 10 12.5022C18.3333 12.5022 20 17.8521 20 19.6354C20 21.4187 18.3333 21.4187 18.3333 21.4187H1.66667ZM10 10.7189C11.3261 10.7189 12.5979 10.1552 13.5355 9.15194C14.4732 8.14863 15 6.78786 15 5.36897C15 3.95008 14.4732 2.58931 13.5355 1.586C12.5979 0.582694 11.3261 0.019043 10 0.019043C8.67392 0.019043 7.40215 0.582694 6.46447 1.586C5.52678 2.58931 5 3.95008 5 5.36897C5 6.78786 5.52678 8.14863 6.46447 9.15194C7.40215 10.1552 8.67392 10.7189 10 10.7189Z" fill="white"/>
</svg>
