<svg width="100" height="92" viewBox="0 0 100 92" fill="none" xmlns="http://www.w3.org/2000/svg">
<path d="M105.001 78.2884C105.001 100.392 85.1953 110.523 50.8539 110.523C16.3309 110.523 -3.29272 100.392 -3.29272 78.2884C-3.29272 45.87 105.001 45.87 105.001 78.2884Z" fill="#E7A74F"/>
<path d="M104.637 62.9925C104.637 85.0959 85.0136 95.2267 50.6722 95.2267C16.5126 95.2267 -3.29272 85.0959 -3.29272 62.9925C-3.11102 30.7584 104.637 30.7584 104.637 62.9925Z" fill="#BA8443"/>
<path d="M-3.29272 63.5511C-3.29272 54.3413 7.42759 41.6318 50.8539 41.6318C94.2803 41.6318 105.001 54.5255 105.001 63.5511C105.001 80.3128 89.7378 92.4697 50.8539 92.4697C11.9701 92.4697 -3.29272 80.3128 -3.29272 63.5511Z" fill="#826046"/>
<path d="M-2.20227 53.9664C-2.20227 44.7566 8.33634 32.0471 50.8542 32.0471C93.372 32.0471 103.911 44.9408 103.911 53.9664C103.911 70.7281 89.0112 82.885 50.8542 82.885C12.6971 82.885 -2.20227 70.7281 -2.20227 53.9664Z" fill="#68472C"/>
<path d="M-1.84258 41.9957C0.701225 36.4699 7.42413 36.1015 29.2282 45.4955C51.0322 54.8894 55.2113 59.8627 52.6675 65.5727C47.9433 75.7035 35.0426 83.2555 15.4189 74.7825C-4.20468 66.3095 -6.74848 52.3107 -1.84258 41.9957Z" fill="#EF4D3C"/>
<path d="M-0.0235474 35.7272C2.52026 30.2013 9.24316 29.8329 31.0472 39.2269C52.8512 48.6209 57.0303 53.5941 54.4865 59.3042C49.7623 69.4349 36.8616 76.9869 17.238 68.5139C-2.38565 60.041 -4.92945 45.8579 -0.0235474 35.7272Z" fill="#D33B23"/>
<path d="M45.5831 59.8657C44.1295 53.9715 49.2171 49.735 72.6564 44.5775C96.0957 39.4201 102.455 40.8936 103.909 46.9721C106.634 57.8396 101.183 71.2858 80.1061 75.8907C59.2106 80.4956 48.1269 70.7332 45.5831 59.8657Z" fill="#EF4D3C"/>
<path d="M43.2224 53.9758C41.7688 48.0816 46.8564 43.8451 70.2957 38.6876C93.735 33.5302 100.095 35.0037 101.548 41.0822C104.274 51.9497 98.8226 65.3959 77.7454 70.0008C56.8499 74.6057 45.9479 64.8433 43.2224 53.9758Z" fill="#D33B23"/>
<path d="M9.96796 53.2273L46.308 88.5928L81.9212 53.2273H9.96796Z" fill="#FFE62E"/>
<path d="M102.637 44.021C102.637 44.021 104.272 50.2836 102.637 52.1256C101.183 53.7833 96.6408 51.9414 94.6421 53.415C92.8251 54.7043 93.3702 59.6776 91.1898 60.7828C89.1911 61.8879 85.3753 58.7566 83.1949 59.6776C81.1962 60.4144 80.4694 65.3876 78.289 66.1244C76.1086 66.677 72.838 62.9931 70.6576 63.3615C68.4772 63.7299 67.0236 68.519 64.6615 68.8874C62.4811 69.2557 59.7556 65.0193 57.3935 65.2035C55.2131 65.3876 53.0327 69.8083 50.6706 69.8083C48.3085 69.8083 46.3098 65.2035 43.9477 65.2035C41.5856 65.0193 39.0418 69.2557 36.6797 68.8874C34.3176 68.519 32.864 63.9141 30.6836 63.3615C28.3215 62.8089 25.2326 66.677 23.0522 66.1244C20.8718 65.3876 20.145 60.5986 18.1463 59.6776C15.9659 58.7566 11.9685 61.8879 10.1515 60.7828C7.97105 59.6776 8.51615 54.7043 6.69915 53.415C4.70045 51.9414 0.157942 53.7833 -1.29566 52.1256C-2.93096 50.2836 -1.29566 44.021 -1.29566 44.021H102.637Z" fill="#8CC63E"/>
<path d="M105.001 39.4178C105.001 51.3905 80.8345 57.2847 50.8539 57.2847C20.8734 57.2847 -3.29272 51.3905 -3.29272 39.4178C-3.29272 17.6827 20.8734 0 50.8539 0C80.8345 0 105.001 17.6827 105.001 39.4178Z" fill="#E7A74F"/>
<path d="M21.962 22.8361L19.0548 25.599L16.3293 22.8361L19.0548 20.0732L21.962 22.8361ZM35.4078 18.4154L32.6823 21.1783L29.9568 18.4154L32.6823 15.6525L35.4078 18.4154ZM43.2209 30.9407L40.3137 33.7036L37.5882 30.9407L40.3137 28.1777L43.2209 30.9407ZM52.6693 20.9941L50.8523 22.8361L49.0353 20.9941L50.8523 19.1522L52.6693 20.9941ZM86.6473 28.1777L84.8303 30.0197L83.0133 28.1777L84.8303 26.3358L86.6473 28.1777ZM97.9127 30.0197L96.0957 31.8617L94.2787 30.0197L96.0957 28.1777L97.9127 30.0197ZM76.6537 16.5735L74.8367 18.4154L73.0197 16.5735L74.8367 14.7315L76.6537 16.5735ZM21.2352 14.1789L19.4182 16.0209L17.6012 14.1789L19.4182 12.337L21.2352 14.1789ZM11.4234 22.8361L9.60637 24.678L7.78937 22.8361L9.60637 20.9941L11.4234 22.8361ZM22.8705 35.1772L21.0535 37.0191L19.0548 35.1772L21.0535 33.3352L22.8705 35.1772ZM44.1294 6.8111L42.3124 8.65305L40.3137 6.8111L42.3124 4.96915L44.1294 6.8111ZM61.3909 4.96915L59.5739 6.8111L57.7569 4.96915L59.5739 3.1272L61.3909 4.96915ZM32.6823 8.65305L30.8653 10.495L29.0483 8.65305L30.8653 6.8111L32.6823 8.65305ZM84.8303 13.0737L83.0133 14.9157L81.1963 13.0737L83.0133 11.2318L84.8303 13.0737ZM65.0249 36.2823L62.2994 39.0453L59.5739 36.2823L62.2994 33.5194L65.0249 36.2823ZM60.6641 22.0993L57.9386 24.8622L55.2131 22.0993L57.9386 19.3364L60.6641 22.0993ZM70.8393 11.416L68.1138 14.1789L65.3883 11.416L68.1138 8.65305L70.8393 11.416ZM78.8341 23.3887L76.1086 26.1516L73.2014 23.3887L76.1086 20.6257L78.8341 23.3887ZM90.463 19.3364L87.7375 22.0993L84.8303 19.3364L87.7375 16.5735L90.463 19.3364ZM81.5596 35.5456L78.8341 38.3085L76.1086 35.5456L78.8341 32.7826L81.5596 35.5456ZM15.0574 30.7565L12.3319 33.5194L9.60637 30.7565L12.3319 27.9936L15.0574 30.7565Z" fill="#FFC17A"/>
</svg>
