<svg width="23" height="17" viewBox="0 0 23 17" fill="none" xmlns="http://www.w3.org/2000/svg">
<path d="M0.733446 1.7473L10.3168 7.22155C10.6388 7.40498 11.0553 7.49194 11.4744 7.49194C11.8936 7.49194 12.3101 7.40498 12.6321 7.22155L22.2154 1.7473C22.8403 1.38996 23.4306 0 22.2844 0H0.665724C-0.480442 0 0.109891 1.38996 0.733446 1.7473ZM22.5055 4.74054L12.6321 10.2121C12.1977 10.4539 11.8936 10.4825 11.4744 10.4825C11.0553 10.4825 10.7512 10.4539 10.3168 10.2121C9.88233 9.97023 1.20239 5.13185 0.493224 4.73919C-0.00510899 4.46201 2.06496e-06 4.78674 2.06496e-06 5.03674V14.9458C2.06496e-06 15.5165 0.723224 16.3045 1.27778 16.3045H21.7222C22.2768 16.3045 23 15.5165 23 14.9458V5.0381C23 4.7881 23.0051 4.46337 22.5055 4.74054Z" fill="white"/>
</svg>
