<svg width="65" height="75" viewBox="0 0 65 75" fill="none" xmlns="http://www.w3.org/2000/svg">
<path d="M47.2613 71.2776C47.2613 73.6009 40.6524 75.4842 32.5001 75.4842C24.3478 75.4842 17.7389 73.6009 17.7389 71.2776C17.7389 69.3984 24.8769 63.9027 29.6434 61.8702V37.7695H35.3568V61.8702C40.1231 63.9027 47.2613 69.3984 47.2613 71.2776Z" fill="#D1CFC3"/>
<path d="M65 28.5332C65 28.5332 64.557 56.2254 32.1572 56.2254C-0.242617 56.2254 5.28575e-05 28.5332 5.28575e-05 28.5332C5.28575e-05 28.4811 0.00715547 28.4314 0.0101148 28.3803C0.216975 32.9742 14.6799 36.6823 32.4999 36.6823C50.3208 36.6823 64.7837 32.9742 64.9899 28.3799C64.9929 28.4311 65 28.4811 65 28.5332Z" fill="#E5E4DF"/>
<path d="M32.4998 19.8799C14.5511 19.8799 0 23.6412 0 28.2814C0 28.3145 0.00843433 28.3477 0.010062 28.3808C0.216922 32.9748 14.6798 36.6828 32.4998 36.6828C50.3206 36.6828 64.7836 32.9747 64.9899 28.3804C64.9917 28.3472 64.9995 28.3145 64.9995 28.2814C64.9995 23.6412 50.4493 19.8799 32.4998 19.8799Z" fill="#D1CFC3"/>
<path d="M31.6038 30.0883C31.6038 32.4566 31.0284 34.6902 30.0103 36.6577C18.0663 36.4238 7.93031 34.5204 3.07635 31.8483C3.00466 31.2644 2.96869 30.6766 2.96863 30.0883C2.96863 22.1809 9.37878 15.7708 17.2862 15.7708C25.1937 15.7708 31.6038 22.1809 31.6038 30.0883Z" fill="#826046"/>
<path d="M59.7606 31.868C59.7606 32.2036 59.7489 32.5364 59.7283 32.8668C53.9302 35.1638 43.9025 36.6821 32.4996 36.6821C31.2294 36.6821 29.977 36.6626 28.7449 36.6261C28.2623 35.0862 28.0175 33.4818 28.019 31.8681C28.019 23.1029 35.1246 15.9973 43.8898 15.9973C52.655 15.9972 59.7606 23.1028 59.7606 31.868Z" fill="#FFF200"/>
<path d="M55.4441 20.9399C55.4441 23.4104 53.4414 25.4132 50.9709 25.4132C50.5378 25.4132 50.1196 25.3504 49.7235 25.2356C49.7927 26.9951 48.8135 28.7044 47.1127 29.4817C45.3978 30.2654 43.4467 29.8738 42.1619 28.646C41.5922 30.4613 39.8968 31.7782 37.8934 31.7782C35.7754 31.7782 34.0026 30.3057 33.5394 28.329C32.7191 29.2821 31.5049 29.8864 30.1487 29.8864C27.6782 29.8864 25.6755 27.8836 25.6755 25.4132C25.6755 25.3538 25.6777 25.2951 25.6799 25.2363C23.7652 25.7942 21.6435 25.0129 20.5814 23.2173C19.3236 21.091 20.0277 18.3477 22.1541 17.0899C22.6431 16.8003 23.1829 16.6069 23.7445 16.52C23.6321 15.7912 23.5757 15.0549 23.5758 14.3176C23.5758 6.41015 29.986 0 37.8934 0C45.8009 0 52.211 6.41015 52.211 14.3176C52.211 15.0925 52.1486 15.8526 52.03 16.5942C53.9893 17.07 55.4441 18.8346 55.4441 20.9399Z" fill="#FF9F9F"/>
</svg>
