<svg width="23" height="30" viewBox="0 0 23 30" fill="none" xmlns="http://www.w3.org/2000/svg">
<path d="M11.5 17.0913C10.4661 17.0913 9.45548 16.7847 8.59586 16.2103C7.73624 15.6359 7.06625 14.8195 6.67061 13.8644C6.27497 12.9092 6.17145 11.8582 6.37315 10.8442C6.57484 9.83021 7.07269 8.8988 7.80374 8.16775C8.53479 7.43671 9.4662 6.93886 10.4802 6.73716C11.4942 6.53547 12.5452 6.63898 13.5004 7.03462C14.4555 7.43026 15.2719 8.10026 15.8463 8.95987C16.4207 9.81949 16.7272 10.8301 16.7272 11.864C16.7256 13.2498 16.1743 14.5784 15.1944 15.5584C14.2144 16.5383 12.8858 17.0896 11.5 17.0913ZM11.5 8.72763C10.8797 8.72763 10.2733 8.91157 9.75751 9.2562C9.24173 9.60083 8.83974 10.0907 8.60236 10.6638C8.36497 11.2369 8.30286 11.8675 8.42388 12.4759C8.5449 13.0843 8.84361 13.6431 9.28223 14.0817C9.72086 14.5204 10.2797 14.8191 10.8881 14.9401C11.4965 15.0611 12.1271 14.999 12.7002 14.7616C13.2733 14.5242 13.7631 14.1222 14.1078 13.6065C14.4524 13.0907 14.6363 12.4843 14.6363 11.864C14.6355 11.0324 14.3048 10.2352 13.7168 9.64716C13.1288 9.05916 12.3315 8.72846 11.5 8.72763Z" fill="black"/>
<path d="M11.5 29.6365L2.68055 19.2353C2.55801 19.0791 2.43673 18.9219 2.31674 18.7638C0.810218 16.7793 -0.00363942 14.3553 1.22348e-05 11.8638C1.22348e-05 8.81377 1.21161 5.8887 3.36828 3.73204C5.52495 1.57537 8.45001 0.36377 11.5 0.36377C14.55 0.36377 17.4751 1.57537 19.6317 3.73204C21.7884 5.8887 23 8.81377 23 11.8638C23.0036 14.3542 22.1901 16.777 20.6843 18.7606L20.6833 18.7638C20.6833 18.7638 20.3696 19.1757 20.3226 19.2311L11.5 29.6365ZM3.98528 17.504C3.98737 17.504 4.22992 17.826 4.28533 17.895L11.5 26.4039L18.7241 17.8835C18.7701 17.826 19.0147 17.5019 19.0158 17.5008C20.2464 15.8795 20.9115 13.8993 20.9091 11.8638C20.9091 9.36831 19.9178 6.97508 18.1532 5.21053C16.3887 3.44599 13.9954 2.45468 11.5 2.45468C9.00456 2.45468 6.61132 3.44599 4.84678 5.21053C3.08223 6.97508 2.09092 9.36831 2.09092 11.8638C2.08873 13.9006 2.75455 15.8819 3.98633 17.504H3.98528Z" fill="black"/>
</svg>
