<svg width="23" height="23" viewBox="0 0 23 23" fill="none" xmlns="http://www.w3.org/2000/svg">
<path d="M11.5 0.5C12.8924 0.5 14.2277 1.05312 15.2123 2.03769C16.1969 3.02225 16.75 4.35761 16.75 5.75C16.75 7.14239 16.1969 8.47775 15.2123 9.46231C14.2277 10.4469 12.8924 11 11.5 11C10.1076 11 8.77225 10.4469 7.78769 9.46231C6.80312 8.47775 6.25 7.14239 6.25 5.75C6.25 4.35761 6.80312 3.02225 7.78769 2.03769C8.77225 1.05312 10.1076 0.5 11.5 0.5ZM19.409 16.5059C21.4365 17.5196 22.5 18.8279 22.5 20.125V22.5H0.5V20.125C0.5 18.8279 1.5635 17.5196 3.59095 16.5059C5.58863 15.507 8.38385 14.875 11.5 14.875C14.6161 14.875 17.4114 15.507 19.409 16.5059Z" stroke="black"/>
</svg>
