<svg width="23" height="21" viewBox="0 0 23 21" fill="none" xmlns="http://www.w3.org/2000/svg">
<path d="M4.26937 0.49C4.40434 0.336328 4.57188 0.212955 4.76047 0.128368C4.94907 0.0437802 5.15424 -1.33009e-05 5.36188 3.03028e-09H17.6381C17.8458 -1.33009e-05 18.0509 0.0437802 18.2395 0.128368C18.4281 0.212955 18.5957 0.336328 18.7306 0.49L22.4811 4.7516C22.8159 5.13216 23 5.61682 23 6.118V6.475C23.0001 7.16797 22.7778 7.84364 22.3644 8.40759C21.9509 8.97154 21.3668 9.39558 20.6938 9.62044C20.0208 9.84531 19.2924 9.85976 18.6105 9.66178C17.9287 9.4638 17.3274 9.06328 16.8906 8.5162C16.5717 8.91628 16.163 9.23997 15.6958 9.46249C15.2286 9.68501 14.7154 9.80046 14.1953 9.8C13.6752 9.80057 13.1619 9.68516 12.6947 9.46263C12.2275 9.2401 11.8188 8.91635 11.5 8.5162C11.1812 8.91635 10.7725 9.2401 10.3053 9.46263C9.83807 9.68516 9.32477 9.80057 8.80469 9.8C8.28461 9.80057 7.7713 9.68516 7.30411 9.46263C6.83691 9.2401 6.42822 8.91635 6.10938 8.5162C5.67265 9.06328 5.07133 9.4638 4.38946 9.66178C3.70759 9.85976 2.97924 9.84531 2.30622 9.62044C1.63319 9.39558 1.04912 8.97154 0.635637 8.40759C0.222154 7.84364 -7.84854e-05 7.16797 2.07928e-08 6.475V6.118C1.81233e-05 5.61682 0.184081 5.13216 0.518938 4.7516L4.27081 0.4886L4.26937 0.49ZM6.82812 6.475C6.82812 6.98554 7.03637 7.47517 7.40705 7.83618C7.77772 8.19719 8.28047 8.4 8.80469 8.4C9.3289 8.4 9.83165 8.19719 10.2023 7.83618C10.573 7.47517 10.7812 6.98554 10.7812 6.475C10.7812 6.28935 10.857 6.1113 10.9918 5.98003C11.1266 5.84875 11.3094 5.775 11.5 5.775C11.6906 5.775 11.8734 5.84875 12.0082 5.98003C12.143 6.1113 12.2188 6.28935 12.2188 6.475C12.2188 6.98554 12.427 7.47517 12.7977 7.83618C13.1683 8.19719 13.6711 8.4 14.1953 8.4C14.7195 8.4 15.2223 8.19719 15.593 7.83618C15.9636 7.47517 16.1719 6.98554 16.1719 6.475C16.1719 6.28935 16.2476 6.1113 16.3824 5.98003C16.5172 5.84875 16.7 5.775 16.8906 5.775C17.0812 5.775 17.2641 5.84875 17.3989 5.98003C17.5336 6.1113 17.6094 6.28935 17.6094 6.475C17.6094 6.98554 17.8176 7.47517 18.1883 7.83618C18.559 8.19719 19.0617 8.4 19.5859 8.4C20.1102 8.4 20.6129 8.19719 20.9836 7.83618C21.3543 7.47517 21.5625 6.98554 21.5625 6.475V6.118C21.5625 5.95116 21.5013 5.7898 21.39 5.663L17.6381 1.4H5.36188L1.61 5.663C1.49866 5.7898 1.43749 5.95116 1.4375 6.118V6.475C1.4375 6.98554 1.64574 7.47517 2.01642 7.83618C2.3871 8.19719 2.88985 8.4 3.41406 8.4C3.93828 8.4 4.44103 8.19719 4.8117 7.83618C5.18238 7.47517 5.39062 6.98554 5.39062 6.475C5.39062 6.28935 5.46635 6.1113 5.60114 5.98003C5.73593 5.84875 5.91875 5.775 6.10938 5.775C6.3 5.775 6.48282 5.84875 6.61761 5.98003C6.7524 6.1113 6.82812 6.28935 6.82812 6.475ZM2.15625 10.5C2.34687 10.5 2.52969 10.5737 2.66448 10.705C2.79927 10.8363 2.875 11.0143 2.875 11.2V19.6H4.3125V12.6C4.3125 12.2287 4.46395 11.8726 4.73353 11.6101C5.00312 11.3475 5.36875 11.2 5.75 11.2H10.0625C10.4437 11.2 10.8094 11.3475 11.079 11.6101C11.3485 11.8726 11.5 12.2287 11.5 12.6V19.6H20.125V11.2C20.125 11.0143 20.2007 10.8363 20.3355 10.705C20.4703 10.5737 20.6531 10.5 20.8438 10.5C21.0344 10.5 21.2172 10.5737 21.352 10.705C21.4868 10.8363 21.5625 11.0143 21.5625 11.2V19.6H22.2812C22.4719 19.6 22.6547 19.6737 22.7895 19.805C22.9243 19.9363 23 20.1143 23 20.3C23 20.4857 22.9243 20.6637 22.7895 20.795C22.6547 20.9263 22.4719 21 22.2812 21H0.71875C0.528126 21 0.345309 20.9263 0.210517 20.795C0.0757253 20.6637 2.07928e-08 20.4857 2.07928e-08 20.3C2.07928e-08 20.1143 0.0757253 19.9363 0.210517 19.805C0.345309 19.6737 0.528126 19.6 0.71875 19.6H1.4375V11.2C1.4375 11.0143 1.51323 10.8363 1.64802 10.705C1.78281 10.5737 1.96563 10.5 2.15625 10.5ZM5.75 19.6H10.0625V12.6H5.75V19.6ZM12.9375 12.6C12.9375 12.2287 13.089 11.8726 13.3585 11.6101C13.6281 11.3475 13.9938 11.2 14.375 11.2H17.25C17.6312 11.2 17.9969 11.3475 18.2665 11.6101C18.536 11.8726 18.6875 12.2287 18.6875 12.6V16.8C18.6875 17.1713 18.536 17.5274 18.2665 17.7899C17.9969 18.0525 17.6312 18.2 17.25 18.2H14.375C13.9938 18.2 13.6281 18.0525 13.3585 17.7899C13.089 17.5274 12.9375 17.1713 12.9375 16.8V12.6ZM17.25 12.6H14.375V16.8H17.25V12.6Z" fill="black"/>
</svg>
