<svg width="24" height="23" viewBox="0 0 24 23" fill="none" xmlns="http://www.w3.org/2000/svg">
<path fill-rule="evenodd" clip-rule="evenodd" d="M17.1901 14.8332L23.6458 21.0201C23.8727 21.2377 24.0001 21.5328 24 21.8404C23.9999 22.1481 23.8723 22.4431 23.6452 22.6605C23.4181 22.878 23.1102 23.0001 22.7892 23C22.4682 22.9999 22.1604 22.8776 21.9335 22.66L15.4778 16.4731C13.5479 17.9056 11.1211 18.5797 8.69104 18.3583C6.26097 18.1369 4.01018 17.0366 2.39656 15.2813C0.782936 13.5259 -0.0723147 11.2474 0.00479537 8.90919C0.0819054 6.57098 1.08558 4.34875 2.81165 2.69456C4.53771 1.04038 6.85651 0.0784947 9.29632 0.00459568C11.7361 -0.0693033 14.1137 0.750332 15.9453 2.29676C17.7769 3.84319 18.925 6.00025 19.156 8.32912C19.387 10.658 18.6836 12.9837 17.1889 14.8332H17.1901ZM9.60045 16.0994C11.5099 16.0994 13.3412 15.3724 14.6914 14.0784C16.0416 12.7845 16.8001 11.0295 16.8001 9.19951C16.8001 7.36955 16.0416 5.61455 14.6914 4.32058C13.3412 3.0266 11.5099 2.29966 9.60045 2.29966C7.69098 2.29966 5.85971 3.0266 4.50951 4.32058C3.15932 5.61455 2.40078 7.36955 2.40078 9.19951C2.40078 11.0295 3.15932 12.7845 4.50951 14.0784C5.85971 15.3724 7.69098 16.0994 9.60045 16.0994Z" fill="#F72D57"/>
</svg>
