<svg width="72" height="56" viewBox="0 0 72 56" fill="none" xmlns="http://www.w3.org/2000/svg">
<path d="M6.95066 25.4471C6.43643 21.5809 5.56568 14.7675 6.14161 11.017C6.71754 7.26659 8.22593 3.80882 11.373 2.44068C14.0949 1.26313 17.4888 2.50875 19.4497 5.42199C20.5673 7.08281 21.2049 9.1316 21.7466 11.16C22.6722 14.645 23.5567 19.4096 24.0023 22.9967" stroke="#00796B" stroke-width="3" stroke-miterlimit="10"/>
<path d="M9.52063 77.9864L-7.05109 71.1321L-3.20469 54.2925L-4.02745 15.9167L37.9058 11.0295V14.6643L47.8817 15.9167L9.52063 77.9864Z" fill="#26A69A"/>
<path d="M51.4408 71.7239L9.51444 78.0268L5.94916 55.9869V22.2124L47.8824 15.9163V49.684L51.4408 71.7239Z" fill="#61DE9F"/>
<path d="M5.9486 22.212V18.4139L-4.02734 15.9159L37.9882 11.2874L39.332 14.2414L47.8818 15.9159L5.9486 22.212Z" fill="#263238"/>
<path d="M-7.05109 71.1317C-6.76312 71.1317 2.87686 63.5423 2.87686 63.5423L9.51378 78.0268L8.08767 54.9319L5.92792 22.2124L3.12369 57.5729L-7.05109 71.1317Z" fill="#00796B"/>
<path d="M37.866 11.7246L38.8807 14.0525L39.011 14.3588L39.3332 14.4405L44.4412 15.7405L6.63543 21.4241V17.8846L6.11435 17.7553L-0.248313 16.1625L37.866 11.7246ZM38.2979 10.9895L-4.01929 15.9175L5.95665 18.4155V22.2204L47.883 15.9175L39.5115 13.7802L38.2979 10.9895Z" fill="#26A69A"/>
<path d="M18.5993 24.7652C18.0851 20.9058 12.7303 6.08094 22.9805 4.1887C30.7281 2.7593 34.1494 19.1429 34.6019 22.7368" stroke="#61DE9F" stroke-width="3" stroke-miterlimit="10"/>
<path d="M19.8745 25.8422C19.278 23.8479 18.6541 19.8183 18.6266 19.6414L20.6561 19.3351C20.663 19.3759 21.3897 23.4871 22.1851 25.4134L19.8745 25.8422ZM35.8634 23.4258C35.2669 21.4315 34.643 17.402 34.6156 17.225L36.6451 16.9187C36.6519 16.9595 37.4952 21.1388 38.2014 23.0038L35.8634 23.4258ZM20.5807 76.3679L26.34 66.4642L23.5906 40.0613L46.6073 35.6165L34.2659 74.3395L20.5807 76.3679Z" fill="#26A69A"/>
<path d="M38.5641 37.4254C38.5641 37.4254 35.9724 23.7645 44.6045 24.6698C49.3011 25.1599 49.1091 36.0028 49.1091 36.0028" stroke="#D7578A" stroke-width="3" stroke-miterlimit="10"/>
<path d="M39.5181 82.9893L26.7859 77.7005L29.7478 64.7543L29.117 35.2543L61.3417 31.4971V34.2946L69.0071 35.2543L39.5181 82.9893Z" fill="#D7578A"/>
<path d="M71.7428 78.1496L39.5181 82.9959L36.7825 66.0542V40.1005L69.0072 35.2542V61.2147L71.7428 78.1496Z" fill="#FF9F9F"/>
<path d="M36.7813 40.1007L34.2034 38.1403L29.116 35.2543L61.3407 31.4971L64.2683 33.3281L69.006 35.2543L36.7813 40.1007Z" fill="#263238"/>
<path d="M61.2172 32.1982L66.7366 34.9004L36.9253 39.3792L31.1043 35.7036L61.2172 32.1982ZM61.3407 31.4971L29.116 35.2543L36.7813 40.1007L69.006 35.2543L61.3407 31.4971Z" fill="#D7578A"/>
<path d="M47.6771 42.7078C47.2178 41.1831 46.7447 38.0861 46.7241 37.9568L48.5342 37.7254C48.541 37.7594 49.0004 40.8768 49.4255 42.313L47.6771 42.7078ZM59.9431 40.836C59.4837 39.3113 59.0106 36.2143 58.9901 36.085L60.7796 35.8604C60.7864 35.8944 61.1567 39.1071 61.5818 40.5433L59.9431 40.836Z" fill="#D7578A"/>
<path d="M46.6625 42.7761C46.2648 39.8084 42.1921 27.2978 49.8712 26.2428C55.8705 25.4192 58.4553 37.7392 58.805 40.4959" stroke="#FF9F9F" stroke-width="3" stroke-miterlimit="10"/>
<path d="M26.7859 77.7011L33.2925 72.2286L39.5181 82.9967L36.7961 66.1571L36.8235 40.183L36.0556 39.8699L33.6285 66.2728L26.7859 77.7011Z" fill="#AB2C5E"/>
</svg>
