<svg width="26" height="37" viewBox="0 0 26 37" fill="none" xmlns="http://www.w3.org/2000/svg">
<path d="M0 37L4.5 0H22L26 37L13 32.5L0 37Z" fill="#F2BC57"/>
<path d="M12.8098 2.58541C12.8697 2.40115 13.1303 2.40115 13.1902 2.58541L14.3022 6.0077C14.329 6.09011 14.4057 6.1459 14.4924 6.1459H18.0908C18.2845 6.1459 18.3651 6.39382 18.2084 6.5077L15.2972 8.62279C15.2271 8.67372 15.1978 8.764 15.2245 8.8464L16.3365 12.2687C16.3964 12.453 16.1855 12.6062 16.0287 12.4923L13.1176 10.3772C13.0475 10.3263 12.9525 10.3263 12.8824 10.3772L9.97127 12.4923C9.81453 12.6062 9.60363 12.453 9.6635 12.2687L10.7755 8.8464C10.8022 8.764 10.7729 8.67372 10.7028 8.62279L7.79164 6.5077C7.6349 6.39382 7.71545 6.1459 7.9092 6.1459H11.5076C11.5943 6.1459 11.671 6.09011 11.6978 6.0077L12.8098 2.58541Z" fill="url(#paint0_linear_176_1064)"/>
<path d="M5.46 24.48V23.62L8.82 18.8H10.2V23.49H11.13V24.48H10.2V26H9.08V24.48H5.46ZM9.13 19.96L6.77 23.49H9.13V19.96ZM12.6846 26.07C12.4779 26.07 12.3046 26 12.1646 25.86C12.0246 25.72 11.9546 25.5467 11.9546 25.34C11.9546 25.1333 12.0246 24.96 12.1646 24.82C12.3046 24.68 12.4779 24.61 12.6846 24.61C12.8846 24.61 13.0546 24.68 13.1946 24.82C13.3346 24.96 13.4046 25.1333 13.4046 25.34C13.4046 25.5467 13.3346 25.72 13.1946 25.86C13.0546 26 12.8846 26.07 12.6846 26.07ZM15.1167 24.45C15.7567 23.8967 16.2601 23.4433 16.6267 23.09C17.0001 22.73 17.3101 22.3567 17.5567 21.97C17.8034 21.5833 17.9267 21.1967 17.9267 20.81C17.9267 20.41 17.8301 20.0967 17.6367 19.87C17.4501 19.6433 17.1534 19.53 16.7467 19.53C16.3534 19.53 16.0467 19.6567 15.8267 19.91C15.6134 20.1567 15.5001 20.49 15.4867 20.91H14.3867C14.4067 20.15 14.6334 19.57 15.0667 19.17C15.5067 18.7633 16.0634 18.56 16.7367 18.56C17.4634 18.56 18.0301 18.76 18.4367 19.16C18.8501 19.56 19.0567 20.0933 19.0567 20.76C19.0567 21.24 18.9334 21.7033 18.6867 22.15C18.4467 22.59 18.1567 22.9867 17.8167 23.34C17.4834 23.6867 17.0567 24.09 16.5367 24.55L16.0867 24.95H19.2567V25.9H14.3967V25.07L15.1167 24.45Z" fill="black"/>
<defs>
<linearGradient id="paint0_linear_176_1064" x1="7" y1="8" x2="15.5" y2="8" gradientUnits="userSpaceOnUse">
<stop offset="0.9999"/>
<stop offset="1" stop-color="#D9D9D9" stop-opacity="0"/>
</linearGradient>
</defs>
</svg>
