<svg width="26" height="37" viewBox="0 0 26 37" fill="none" xmlns="http://www.w3.org/2000/svg">
<path d="M0 37L4.5 0H22L26 37L13 32.5L0 37Z" fill="#F2BC57"/>
<path d="M12.8098 2.58541C12.8697 2.40115 13.1303 2.40115 13.1902 2.58541L14.3022 6.0077C14.329 6.09011 14.4057 6.1459 14.4924 6.1459H18.0908C18.2845 6.1459 18.3651 6.39382 18.2084 6.5077L15.2972 8.62279C15.2271 8.67372 15.1978 8.764 15.2245 8.8464L16.3365 12.2687C16.3964 12.453 16.1855 12.6062 16.0287 12.4923L13.1176 10.3772C13.0475 10.3263 12.9525 10.3263 12.8824 10.3772L9.97127 12.4923C9.81453 12.6062 9.60363 12.453 9.6635 12.2687L10.7755 8.8464C10.8022 8.764 10.7729 8.67372 10.7028 8.62279L7.79164 6.5077C7.6349 6.39382 7.71545 6.1459 7.9092 6.1459H11.5076C11.5943 6.1459 11.671 6.09011 11.6978 6.0077L12.8098 2.58541Z" fill="url(#paint0_linear_176_1043)"/>
<path d="M5.58 20.51C5.62 19.89 5.85667 19.4067 6.29 19.06C6.73 18.7133 7.29 18.54 7.97 18.54C8.43667 18.54 8.84 18.6233 9.18 18.79C9.52 18.9567 9.77667 19.1833 9.95 19.47C10.1233 19.7567 10.21 20.08 10.21 20.44C10.21 20.8533 10.1 21.2067 9.88 21.5C9.66 21.7933 9.39667 21.99 9.09 22.09V22.13C9.48333 22.25 9.79 22.47 10.01 22.79C10.23 23.1033 10.34 23.5067 10.34 24C10.34 24.3933 10.25 24.7433 10.07 25.05C9.89 25.3567 9.62333 25.6 9.27 25.78C8.91667 25.9533 8.49333 26.04 8 26.04C7.28 26.04 6.68667 25.8567 6.22 25.49C5.76 25.1167 5.51333 24.5833 5.48 23.89H6.58C6.60667 24.2433 6.74333 24.5333 6.99 24.76C7.23667 24.98 7.57 25.09 7.99 25.09C8.39667 25.09 8.71 24.98 8.93 24.76C9.15 24.5333 9.26 24.2433 9.26 23.89C9.26 23.4233 9.11 23.0933 8.81 22.9C8.51667 22.7 8.06333 22.6 7.45 22.6H7.19V21.66H7.46C8 21.6533 8.41 21.5633 8.69 21.39C8.97667 21.2167 9.12 20.9433 9.12 20.57C9.12 20.25 9.01667 19.9967 8.81 19.81C8.60333 19.6167 8.31 19.52 7.93 19.52C7.55667 19.52 7.26667 19.6167 7.06 19.81C6.85333 19.9967 6.73 20.23 6.69 20.51H5.58ZM12.1475 26.07C11.9408 26.07 11.7675 26 11.6275 25.86C11.4875 25.72 11.4175 25.5467 11.4175 25.34C11.4175 25.1333 11.4875 24.96 11.6275 24.82C11.7675 24.68 11.9408 24.61 12.1475 24.61C12.3475 24.61 12.5175 24.68 12.6575 24.82C12.7975 24.96 12.8675 25.1333 12.8675 25.34C12.8675 25.5467 12.7975 25.72 12.6575 25.86C12.5175 26 12.3475 26.07 12.1475 26.07ZM15.3696 24.02C15.4363 24.3533 15.5796 24.6067 15.7996 24.78C16.0196 24.9533 16.3163 25.04 16.6896 25.04C17.1629 25.04 17.5096 24.8533 17.7296 24.48C17.9496 24.1067 18.0596 23.47 18.0596 22.57C17.8996 22.7967 17.6729 22.9733 17.3796 23.1C17.0929 23.22 16.7796 23.28 16.4396 23.28C16.0063 23.28 15.6129 23.1933 15.2596 23.02C14.9063 22.84 14.6263 22.5767 14.4196 22.23C14.2196 21.8767 14.1196 21.45 14.1196 20.95C14.1196 20.2167 14.3329 19.6333 14.7596 19.2C15.1929 18.76 15.7863 18.54 16.5396 18.54C17.4463 18.54 18.0896 18.8433 18.4696 19.45C18.8563 20.05 19.0496 20.9733 19.0496 22.22C19.0496 23.08 18.9763 23.7833 18.8296 24.33C18.6896 24.8767 18.4429 25.29 18.0896 25.57C17.7363 25.85 17.2463 25.99 16.6196 25.99C15.9063 25.99 15.3563 25.8033 14.9696 25.43C14.5829 25.0567 14.3663 24.5867 14.3196 24.02H15.3696ZM16.6396 22.32C17.0396 22.32 17.3529 22.1967 17.5796 21.95C17.8129 21.6967 17.9296 21.3633 17.9296 20.95C17.9296 20.49 17.8063 20.1333 17.5596 19.88C17.3196 19.62 16.9896 19.49 16.5696 19.49C16.1496 19.49 15.8163 19.6233 15.5696 19.89C15.3296 20.15 15.2096 20.4933 15.2096 20.92C15.2096 21.3267 15.3263 21.6633 15.5596 21.93C15.7996 22.19 16.1596 22.32 16.6396 22.32Z" fill="black"/>
<defs>
<linearGradient id="paint0_linear_176_1043" x1="7" y1="8" x2="13.5" y2="8" gradientUnits="userSpaceOnUse">
<stop offset="0.9999"/>
<stop offset="1" stop-color="#D9D9D9" stop-opacity="0"/>
</linearGradient>
</defs>
</svg>
