<svg width="96" height="17" viewBox="0 0 96 17" fill="none" xmlns="http://www.w3.org/2000/svg">
<path d="M8.5 0L10.4084 5.87336L16.584 5.87336L11.5878 9.50329L13.4962 15.3766L8.5 11.7467L3.50383 15.3766L5.41219 9.50329L0.416019 5.87336L6.59163 5.87336L8.5 0Z" fill="white"/>
<path d="M28.1154 0L30.0238 5.87336L36.1994 5.87336L31.2032 9.50329L33.1116 15.3766L28.1154 11.7467L23.1192 15.3766L25.0276 9.50329L20.0314 5.87336L26.207 5.87336L28.1154 0Z" fill="white"/>
<path d="M47.7308 0L49.6391 5.87336L55.8148 5.87336L50.8186 9.50329L52.7269 15.3766L47.7308 11.7467L42.7346 15.3766L44.643 9.50329L39.6468 5.87336L45.8224 5.87336L47.7308 0Z" fill="white"/>
<path d="M67.3462 0L69.2545 5.87336L75.4301 5.87336L70.434 9.50329L72.3423 15.3766L67.3462 11.7467L62.35 15.3766L64.2584 9.50329L59.2622 5.87336L65.4378 5.87336L67.3462 0Z" fill="white"/>
<path d="M86.9615 0L88.8699 5.87336L95.0455 5.87336L90.0494 9.50329L91.9577 15.3766L86.9615 11.7467L81.9654 15.3766L83.8737 9.50329L78.8776 5.87336L85.0532 5.87336L86.9615 0Z" fill="url(#paint0_linear_176_1005)"/>
<defs>
<linearGradient id="paint0_linear_176_1005" x1="78.4615" y1="9.15385" x2="95.4615" y2="9.15385" gradientUnits="userSpaceOnUse">
<stop offset="0.359275" stop-color="white"/>
<stop offset="0.359375" stop-color="#FFF200" stop-opacity="0"/>
</linearGradient>
</defs>
</svg>
