<svg width="17" height="19" viewBox="0 0 17 19" fill="none" xmlns="http://www.w3.org/2000/svg">
<path d="M16.3383 6.03741C15.9117 5.00211 15.2911 4.06109 14.5111 3.2668C13.7334 2.47113 12.8097 1.83853 11.7922 1.40491C10.7499 0.958539 9.63005 0.729731 8.49911 0.732073H8.46108C7.31078 0.737874 6.1985 0.969886 5.15087 1.42618C4.14216 1.86424 3.22705 2.49797 2.45669 3.29194C1.68423 4.08444 1.07075 5.02217 0.650423 6.05288C0.214097 7.1247 -0.00699179 8.27445 0.000168518 9.43445C0.00587251 10.7763 0.321493 12.1084 0.910905 13.2994V16.2382C0.910905 16.7293 1.30258 17.1276 1.78362 17.1276H4.66983C5.84652 17.7314 7.145 18.0491 8.46299 18.0556H8.50291C9.63991 18.0556 10.7408 17.8314 11.7789 17.3925C12.7912 16.964 13.7115 16.3388 14.4883 15.5518C15.2716 14.7611 15.8877 13.8369 16.3193 12.8064C16.7661 11.7391 16.9942 10.6042 17 9.43252C17.0038 8.25506 16.7794 7.1124 16.3383 6.03741ZM4.70406 10.3219C4.20211 10.3219 3.79332 9.90621 3.79332 9.39385C3.79332 8.88149 4.20211 8.4658 4.70406 8.4658C5.20601 8.4658 5.61479 8.88149 5.61479 9.39385C5.61479 9.90621 5.20791 10.3219 4.70406 10.3219ZM8.49911 10.3219C7.99716 10.3219 7.58837 9.90621 7.58837 9.39385C7.58837 8.88149 7.99716 8.4658 8.49911 8.4658C9.00106 8.4658 9.40985 8.88149 9.40985 9.39385C9.40985 9.90621 9.00106 10.3219 8.49911 10.3219ZM12.2942 10.3219C11.7922 10.3219 11.3834 9.90621 11.3834 9.39385C11.3834 8.88149 11.7922 8.4658 12.2942 8.4658C12.7961 8.4658 13.2049 8.88149 13.2049 9.39385C13.2049 9.90621 12.7961 10.3219 12.2942 10.3219Z" fill="white"/>
</svg>
